name random_motion_10s.mot
datacolumns 16
datarows 11
range 5.00000000 5.01000000
endheader
time	lumbar_extension	lumbar_bending	lumbar_rotation	ankle_angle	subtalar_angle	mtp_angle	knee_flexion	knee_adduction	knee_rotation	knee_tx	knee_ty	knee_tz	hip_flexion	hip_adduction	hip_rotation	
          5.00000000	        -22.36928289	          9.76501866	         -4.90538270	         -7.14874313	        -11.18580337	          5.89004442	        -38.08068495	         -2.86724252	         -5.79003478	         -0.00078360	          0.03867682	         -0.00933296	         -1.28854152	          0.35675782	        -11.16083898	
          5.00100000	        -20.61444144	          6.46802769	         -5.84485930	          3.69129681	         -4.24921736	        -22.56331188	        -53.43295622	         -0.71176074	         -2.52545542	          0.00400519	          0.02719866	          0.00084842	         -5.93891567	          9.86683534	        -13.96088155	
          5.00200000	        -26.02150205	          9.92006991	         -3.57994313	         -9.50639276	        -14.66380784	         -8.49010828	        -20.57388652	          3.71715379	          4.58199688	          0.00315595	          0.03989644	          0.00550057	        -20.05509518	          1.46554045	         -7.41662591	
          5.00300000	        -27.21600628	          1.82585150	         -4.30114272	          4.52547158	         -2.41349013	          4.82221033	        -51.28822014	          0.23288944	          1.52996057	         -0.00414697	          0.04318843	          0.00790821	         -2.12122259	          8.55586014	         -6.80052080	
          5.00400000	        -22.30138192	          5.02335098	         -4.35077909	          0.13827310	        -14.67453137	        -10.67682482	         -3.79447012	         -4.78372555	          1.56942231	         -0.00351696	          0.03266354	          0.00562669	         -8.61585165	          8.20466587	         -2.20973943	
          5.00500000	        -26.87215920	          1.28096749	         -3.62621187	         -4.02950856	         -6.06285056	        -15.34821416	         -3.13219471	         -2.87595614	          2.61854640	          0.00395124	          0.04290041	          0.00418565	        -27.54508601	          4.88956087	         -3.30179849	
          5.00600000	        -27.08963733	          1.83100181	         -2.70107610	         -3.65977914	        -10.30391350	         -0.40581416	        -63.60498429	          0.15814533	         -0.34255994	         -0.00836642	          0.02961261	          0.00568669	         14.97038203	          4.98835382	         -9.45421930	
          5.00700000	        -22.37552292	          2.30606400	         -3.30625211	         -1.35095469	         -2.76574978	        -17.53703383	        -57.20356658	         -3.70925298	          2.28289965	         -0.00196671	          0.04012579	         -0.00300302	        -14.30593548	          9.83987349	         -6.25368447	
          5.00800000	        -21.13055530	          0.91626527	         -4.08975214	          4.76123714	         -4.05170300	         -5.14781784	        -61.72815759	          1.79828055	          1.44488385	         -0.00352577	          0.02535958	         -0.00210558	          2.56548207	          0.86751538	         -7.79071860	
          5.00900000	        -22.05715642	         10.34739531	         -4.92938573	         -1.40410044	        -10.69950753	         -4.59196284	        -49.19608867	          4.01614954	         -5.72442129	         -0.00231004	          0.03629978	          0.00583417	         18.30892159	          0.57688820	        -11.36111940	
          5.01000000	        -26.57051039	          5.78122381	         -4.94690655	          8.90051538	        -15.83079236	         -8.89368208	         -4.65553954	          1.73395908	          2.87019513	         -0.00558403	          0.03595830	         -0.00942440	        -11.92506889	          4.96701935	        -15.06432526	
